<svg xmlns="http://www.w3.org/2000/svg" viewBox="0 0 437.65 104.91"><defs><style>.cls-1{fill:#35a5dd;}.cls-2{fill:#ef4e79;}.cls-3{fill:#f79321;}.cls-4{fill:#fff;}</style></defs><title>MGB_MGBLogo</title><g id="Layer_2" data-name="Layer 2"><g id="Layer_2-2" data-name="Layer 2"><path class="cls-1" d="M44.5,29.64c-.36-6.9-.8-15.19-.73-21.36h-.21c-1.66,5.8-3.68,12-6.13,18.79l-8.58,24H24.09L16.23,27.51c-2.31-7-4.25-13.36-5.62-19.23h-.15c-.14,6.17-.5,14.46-.94,21.88L8.23,51.37h-6L5.63,1.89h8l8.3,23.94c2,6.09,3.67,11.52,4.9,16.66h.22c1.22-5,2.95-10.42,5.12-16.66L40.82,1.89h8l3,49.48H45.72Z"/><path class="cls-1" d="M65.63,5.86a3.93,3.93,0,1,1-7.86,0,3.9,3.9,0,0,1,4-4A3.8,3.8,0,0,1,65.63,5.86ZM58.56,51.37V15.84h6.35V51.37Z"/><path class="cls-2" d="M20.17,62.23C20.05,64,20,65.9,20,68.39V82.62c0,6.12-1.2,9.15-3.11,11.06A11,11,0,0,1,9.18,96.5a12.51,12.51,0,0,1-7.22-2l.81-1.91a11.66,11.66,0,0,0,6.75,2c4.77,0,8.21-2.59,8.21-9.67V81.49h-.09A8.49,8.49,0,0,1,9.73,86.1C4,86.1,0,80.87,0,74.39,0,66,5.19,61.68,10.23,61.68a7.93,7.93,0,0,1,7.63,4.58H18l.14-4ZM17.73,71.4a7.93,7.93,0,0,0-.28-2.3,7.41,7.41,0,0,0-7.07-5.46c-4.8,0-8.11,4.16-8.11,10.48,0,5.37,2.69,10,8.06,10a7.47,7.47,0,0,0,7-5.41,8.22,8.22,0,0,0,.4-2.53Z"/><path class="cls-2" d="M41.54,80.27c0,2.13.07,4,.19,5.83H39.64l-.15-4.24h-.1a8.76,8.76,0,0,1-7.8,4.79c-2.88,0-7.72-1.5-7.72-10.52V62.23h2.25V75.64c0,5.22,1.52,9,6,9a7.47,7.47,0,0,0,6.7-4.85,9.09,9.09,0,0,0,.45-2.64V62.23h2.24Z"/><path class="cls-2" d="M45.61,86.1V62.23h2.25V86.1Z"/><path class="cls-2" d="M64.34,86.1,64,82.68H63.9a8.49,8.49,0,0,1-7.24,4A6.35,6.35,0,0,1,50,80.08c0-5.5,4.61-8.83,13.85-8.73v-.63c0-2.36-.44-7.08-5.81-7a9.61,9.61,0,0,0-5.7,1.78l-.71-1.72a11.72,11.72,0,0,1,6.66-2.06c6.55,0,7.81,5.17,7.81,9.44v9.31a40.93,40.93,0,0,0,.33,5.67Zm-.51-12.76c-4.94-.15-11.47.64-11.47,6.37,0,3.43,2.15,5,4.51,5a6.87,6.87,0,0,0,6.72-4.79,4.65,4.65,0,0,0,.24-1.43Z"/><path class="cls-1" d="M268.25,100.5c-.07-1.34-.16-3-.15-4.17h0c-.31,1.12-.7,2.34-1.16,3.67l-1.62,4.69h-.9l-1.5-4.61c-.44-1.36-.8-2.61-1.05-3.75h0c0,1.2-.09,2.82-.18,4.27l-.24,4.15h-1.13l.64-9.68h1.52L264,99.76c.38,1.18.68,2.25.92,3.26h0c.24-1,.56-2,1-3.26l1.65-4.69h1.52l.57,9.68h-1.17Z"/><path class="cls-1" d="M279.48,95.07v5.74c0,2.16.91,3.07,2.16,3.07s2.23-.94,2.23-3.07V95.07h1.2v5.65c0,3-1.49,4.19-3.49,4.19s-3.29-1.13-3.29-4.13V95.07Z"/><path class="cls-1" d="M295.85,95.07H297v6.47c0,2.58-1.19,3.37-2.78,3.37a3.6,3.6,0,0,1-1.27-.23l.17-1a2.75,2.75,0,0,0,1,.19c1.06,0,1.68-.51,1.68-2.41Z"/><path class="cls-1" d="M310.62,100.22h-3.57v3.49h4v1h-5.19V95.07h5v1.05h-3.78v3.06h3.57Z"/><path class="cls-1" d="M319.4,95.21a11.76,11.76,0,0,1,2.29-.21,3.66,3.66,0,0,1,2.67.8,2.49,2.49,0,0,1,.72,1.84,2.53,2.53,0,0,1-1.74,2.46v0a2.39,2.39,0,0,1,1.35,2,18.62,18.62,0,0,0,.71,2.65h-1.23a13.25,13.25,0,0,1-.61-2.32c-.27-1.32-.77-1.83-1.84-1.87h-1.13v4.19H319.4Zm1.19,4.4h1.22a1.85,1.85,0,0,0,2.08-1.84c0-1.25-.87-1.8-2.12-1.8a4.67,4.67,0,0,0-1.18.11Z"/><path class="cls-1" d="M344.82,101.71l-.95,3h-1.24l3.13-9.68h1.43l3.15,9.68h-1.27l-1-3Zm3-1L346.93,98c-.2-.63-.34-1.21-.48-1.77h0c-.13.57-.27,1.16-.45,1.75l-.91,2.8Z"/><path class="cls-1" d="M364.75,104.44a5.61,5.61,0,0,1-2.43.46c-2.6,0-4.54-1.72-4.54-4.9s2-5.08,4.8-5.08a4.8,4.8,0,0,1,2.19.43l-.29,1a4.14,4.14,0,0,0-1.86-.4c-2.16,0-3.59,1.45-3.59,4,0,2.37,1.3,3.88,3.53,3.88a4.51,4.51,0,0,0,1.95-.4Z"/><path class="cls-1" d="M375.21,96.13H372.4V95.07h6.82v1.06H376.4v8.62h-1.19Z"/><path class="cls-1" d="M388.26,95.07v5.74c0,2.16.91,3.07,2.15,3.07s2.24-.94,2.24-3.07V95.07h1.19v5.65c0,3-1.48,4.19-3.48,4.19s-3.3-1.13-3.3-4.13V95.07Z"/><path class="cls-1" d="M403.77,101.71l-.95,3h-1.23l3.13-9.68h1.43l3.14,9.68H408l-1-3Zm3-1L405.88,98c-.2-.63-.34-1.21-.47-1.77h0c-.14.57-.28,1.16-.46,1.75l-.91,2.8Z"/><path class="cls-1" d="M417.47,95.07h1.2v8.63h3.93v1h-5.13Z"/><path class="cls-2" d="M77.47,1.78A96.57,96.57,0,0,1,96.66,0C107.15,0,113.91,1.9,119,6.21c4.22,3.3,6.75,8.37,6.75,15.09,0,8.25-5.19,15.48-13.75,18.77v.26c7.72,2,16.77,8.75,16.77,21.43a23.64,23.64,0,0,1-6.88,17.12c-5.67,5.45-14.84,8-28.11,8a116.25,116.25,0,0,1-16.29-1Zm10.5,35H97.5c11.1,0,17.61-6.09,17.61-14.33,0-10-7.23-13.95-17.85-13.95A42.92,42.92,0,0,0,88,9.26Zm0,41a53.62,53.62,0,0,0,8.81.5c10.85,0,20.87-4.18,20.87-16.61,0-11.67-9.53-16.49-21-16.49H88Z"/><path class="cls-1" d="M142.26,7.48a6.43,6.43,0,0,1-6.75,6.85c-3.74,0-6.4-3-6.4-6.85a6.64,6.64,0,0,1,6.64-7C139.73.51,142.26,3.55,142.26,7.48ZM130.44,86.1V24.73h10.62V86.1Z"/><path class="cls-1" d="M152.52,57.45c.24,15.09,9.41,21.3,20,21.3,7.6,0,12.18-1.39,16.16-3.17l1.81,8c-3.74,1.77-10.13,3.8-19.42,3.8-18,0-28.71-12.42-28.71-30.94s10.37-33.1,27.38-33.1c19.06,0,24.13,17.63,24.13,28.92a44.65,44.65,0,0,1-.36,5.2Zm31.13-8c.12-7.1-2.78-18.14-14.72-18.14-10.74,0-15.45,10.4-16.29,18.14Z"/><path class="cls-1" d="M195,41.34c0-6.34-.12-11.54-.48-16.61h9.41l.6,10.14h.24a21.35,21.35,0,0,1,19.31-11.54c8.08,0,20.63,5.08,20.63,26.13V86.1H234.08V50.72c0-9.89-3.5-18.13-13.51-18.13-7,0-12.43,5.2-14.24,11.41a16.92,16.92,0,0,0-.72,5.2V86.1H195Z"/><path class="cls-3" d="M255,55.1c0,19.43,10.07,27.14,22,27.14,8.44,0,12.82-1.78,16.1-3.46l1.48,4.76c-2.23,1.26-8.17,3.89-18.28,3.89-16.65,0-27-12.74-27-30.56,0-20.32,11.07-33,26-33,19,0,22.56,18.73,22.56,27.52a21.94,21.94,0,0,1-.18,3.74Zm36.92-4.82c.15-8.5-3.23-21.43-17.32-21.43-12.72,0-18.24,12-19.3,21.43Z"/><path class="cls-3" d="M301.16,78.11a24.23,24.23,0,0,0,13,4.22c9.11,0,13.45-5.26,13.45-11.6,0-6.69-3.83-10.27-12.18-13.73-9.48-3.87-14.69-9.29-14.69-16.68,0-8.78,6.57-16.48,17.82-16.48a22,22,0,0,1,12.85,3.87l-2.29,4.91a18.66,18.66,0,0,0-11.46-3.68c-7.36,0-11.28,5-11.28,10.53,0,6.37,4.1,9.07,12,12.49,9.35,3.9,14.9,8.78,14.9,18,0,10.43-7.69,17.46-19.54,17.46a27.38,27.38,0,0,1-14.72-4.21Z"/><path class="cls-3" d="M347.46,7.61V25.23H364v4.89h-16.5V69.68c0,7.74,2.29,12.59,8.5,12.59a19.54,19.54,0,0,0,6.58-1l.69,4.66a19.87,19.87,0,0,1-8,1.45c-4.22,0-7.72-1.39-10-4.31-2.63-3.2-3.53-8.3-3.53-14.52V30.12H332V25.23h9.77V9.57Z"/><path class="cls-3" d="M399.34,86.1l-.85-8.72h-.27A21.62,21.62,0,0,1,379.76,87.5c-11.64,0-17-8.63-17-16.74,0-14.05,11.77-22.51,35.32-22.26V46.89c0-6-1.11-18-14.81-17.95a24.59,24.59,0,0,0-14.54,4.54l-1.81-4.38a30,30,0,0,1,17-5.26c16.71,0,19.9,13.19,19.9,24.06V71.65a103.1,103.1,0,0,0,.85,14.45ZM398,53.58c-12.61-.38-29.25,1.61-29.25,16.23,0,8.75,5.48,12.68,11.52,12.68a17.52,17.52,0,0,0,17.13-12.21,12.21,12.21,0,0,0,.6-3.64Z"/><path class="cls-3" d="M413.46,43.49c0-6.08-.18-12.36-.48-18.26h5.3l.24,12.37h.34c2.53-7.71,8.5-13.76,16.44-13.76a9.46,9.46,0,0,1,2.35.28v5.77a12.7,12.7,0,0,0-2.78-.19c-7.93,0-13.63,7.26-15.2,17a35.45,35.45,0,0,0-.48,5.77V86.1h-5.73Z"/><polygon class="cls-3" points="44.46 60.11 56.1 40.23 67.64 40.23 49.3 60.11 44.46 60.11"/><path class="cls-4" d="M65.64,41.11,48.92,59.24H46L56.6,41.11h9m4-1.75h-14l-.51.86L44.48,58.36,42.93,61h6.76l.52-.56L66.93,42.29l2.71-2.93Z"/></g></g></svg>